<?xml version="1.0" encoding="utf-8"?>
<!-- Generator: Adobe Illustrator 22.0.1, SVG Export Plug-In . SVG Version: 6.00 Build 0)  -->
<svg version="1.1" id="Layer_1" xmlns="http://www.w3.org/2000/svg" xmlns:xlink="http://www.w3.org/1999/xlink" x="0px" y="0px"
	 viewBox="0 0 702 177.3" style="enable-background:new 0 0 702 177.3;" xml:space="preserve">
<style type="text/css">
	.st0{fill:url(#SVGID_1_);}
	.st1{fill:url(#SVGID_2_);}
	.st2{fill:url(#SVGID_3_);}
	.st3{fill:url(#SVGID_4_);}
	.st4{fill:url(#SVGID_5_);}
	.st5{fill:#FFFFFF;}
</style>
<g>
	<g>
		<linearGradient id="SVGID_1_" gradientUnits="userSpaceOnUse" x1="87.0709" y1="174.6667" x2="87.0709" y2="1.7566">
			<stop  offset="0" style="stop-color:#2156FF"/>
			<stop  offset="1" style="stop-color:#00A8FF"/>
		</linearGradient>
		<circle class="st0" cx="87.1" cy="88.7" r="86"/>
		<g>
			<linearGradient id="SVGID_2_" gradientUnits="userSpaceOnUse" x1="88.34" y1="146.862" x2="115.9955" y2="57.5482">
				<stop  offset="0" style="stop-color:#FFFFFF;stop-opacity:0"/>
				<stop  offset="1" style="stop-color:#FFFFFF"/>
			</linearGradient>
			<path class="st1" d="M145.5,103.9L99,134.2l-2.2,1.4c-1.5,1-3.1,1.7-4.7,2.2c-0.5,0.2-1,0.3-1.6,0.4c-0.8,0.2-1.5,0.3-2.3,0.3
				c-0.4,0-0.7,0-1.1,0H87c-0.4,0-0.7,0-1.1,0c-0.8,0-1.5-0.2-2.3-0.3c-0.5-0.1-1.1-0.2-1.6-0.4c-1.6-0.5-3.2-1.2-4.7-2.2l-2.2-1.4
				c-3.8-3.2-6.4-8-6.4-13.8V56.9c0-5.8,2.5-10.6,6.4-13.8l2.2-1.4c2.8-1.8,5.7-2.7,8.6-2.9c0.4,0,0.7,0,1.1,0h0.2
				c0.4,0,0.7,0,1.1,0c0.8,0,1.5,0.2,2.3,0.3c2.1,0.4,4.3,1.3,6.3,2.6l2.2,1.4l46.5,30.3C156.5,80.6,156.5,96.7,145.5,103.9z"/>
			<linearGradient id="SVGID_3_" gradientUnits="userSpaceOnUse" x1="88.34" y1="146.862" x2="115.9955" y2="57.5482">
				<stop  offset="0" style="stop-color:#FFFFFF;stop-opacity:0"/>
				<stop  offset="1" style="stop-color:#FFFFFF"/>
			</linearGradient>
			<path class="st2" d="M145.5,103.9L99,134.2l-2.2,1.4c-1.5,1-3.1,1.7-4.7,2.2c-0.5,0.2-1,0.3-1.6,0.4c-0.8,0.2-1.5,0.3-2.3,0.3
				c-0.4,0-0.7,0-1.1,0H87c-0.4,0-0.7,0-1.1,0c-0.8,0-1.5-0.2-2.3-0.3c-0.5-0.1-1.1-0.2-1.6-0.4c-1.6-0.5-3.2-1.2-4.7-2.2l-2.2-1.4
				c-3.8-3.2-6.4-8-6.4-13.8V56.9c0-5.8,2.5-10.6,6.4-13.8l2.2-1.4c2.8-1.8,5.7-2.7,8.6-2.9c0.4,0,0.7,0,1.1,0h0.2
				c0.4,0,0.7,0,1.1,0c0.8,0,1.5,0.2,2.3,0.3c2.1,0.4,4.3,1.3,6.3,2.6l2.2,1.4l46.5,30.3C156.5,80.6,156.5,96.7,145.5,103.9z"/>
			
				<linearGradient id="SVGID_4_" gradientUnits="userSpaceOnUse" x1="3961.2322" y1="891.0702" x2="3988.8877" y2="801.7564" gradientTransform="matrix(-1 0 0 -1 4047.0339 921.5416)">
				<stop  offset="0" style="stop-color:#FFFFFF;stop-opacity:0"/>
				<stop  offset="1" style="stop-color:#FFFFFF"/>
			</linearGradient>
			<path class="st3" d="M28.6,73.5l46.5-30.3l2.2-1.4c1.5-1,3.1-1.7,4.7-2.2c0.5-0.2,1-0.3,1.6-0.4c0.8-0.2,1.5-0.3,2.3-0.3
				c0.4,0,0.7,0,1.1,0h0.2c0.4,0,0.7,0,1.1,0c0.8,0,1.5,0.2,2.3,0.3c0.5,0.1,1.1,0.2,1.6,0.4c1.6,0.5,3.2,1.2,4.7,2.2l2.2,1.4
				c3.8,3.2,6.4,8,6.4,13.8v63.5c0,5.8-2.5,10.6-6.4,13.8l-2.2,1.4c-2.8,1.8-5.7,2.7-8.6,2.9c-0.4,0-0.7,0-1.1,0H87
				c-0.4,0-0.7,0-1.1,0c-0.8,0-1.5-0.2-2.3-0.3c-2.1-0.4-4.3-1.3-6.3-2.6l-2.2-1.4l-46.5-30.3C17.6,96.7,17.6,80.6,28.6,73.5z"/>
			
				<linearGradient id="SVGID_5_" gradientUnits="userSpaceOnUse" x1="3961.2322" y1="891.0702" x2="3988.8877" y2="801.7564" gradientTransform="matrix(-1 0 0 -1 4047.0339 921.5416)">
				<stop  offset="0" style="stop-color:#FFFFFF;stop-opacity:0"/>
				<stop  offset="1" style="stop-color:#FFFFFF"/>
			</linearGradient>
			<path class="st4" d="M28.6,73.5l46.5-30.3l2.2-1.4c1.5-1,3.1-1.7,4.7-2.2c0.5-0.2,1-0.3,1.6-0.4c0.8-0.2,1.5-0.3,2.3-0.3
				c0.4,0,0.7,0,1.1,0h0.2c0.4,0,0.7,0,1.1,0c0.8,0,1.5,0.2,2.3,0.3c0.5,0.1,1.1,0.2,1.6,0.4c1.6,0.5,3.2,1.2,4.7,2.2l2.2,1.4
				c3.8,3.2,6.4,8,6.4,13.8v63.5c0,5.8-2.5,10.6-6.4,13.8l-2.2,1.4c-2.8,1.8-5.7,2.7-8.6,2.9c-0.4,0-0.7,0-1.1,0H87
				c-0.4,0-0.7,0-1.1,0c-0.8,0-1.5-0.2-2.3-0.3c-2.1-0.4-4.3-1.3-6.3-2.6l-2.2-1.4l-46.5-30.3C17.6,96.7,17.6,80.6,28.6,73.5z"/>
		</g>
	</g>
	<g>
		<path class="st5" d="M213.7,103.5c-0.1-1.6,0.9-2.5,2.4-2.5h10.5c1.4,0,2.2,0.8,2.5,2.3c0.8,3.4,3.6,5.1,9.2,5.1
			c6.2,0,8.2-2.4,8.2-5.1c0-3.9-4.8-5.6-10.5-7.6c-9.4-3.2-21.3-7.1-21.3-21.7c0-13.3,10.8-20,22.1-20c11.1,0,21.8,6,22.9,19.8
			c0.1,1.6-0.9,2.5-2.4,2.5h-10.5c-1.4,0-2.2-0.8-2.5-2.3c-0.8-3.5-3.2-5.1-7.6-5.1c-4.8,0-6.9,2.4-6.9,5.1c0,4,3.9,5.9,9.4,7.9
			c9.5,3.3,22.4,6.8,22.4,21.4c0,13.3-10.6,20-23.4,20C225.7,123.3,214.8,117.3,213.7,103.5z"/>
		<path class="st5" d="M265.3,98.2c0-14.2,11.2-25.1,25.2-25.1c14,0,25.2,10.9,25.2,25.1c0,14.2-11.2,25.1-25.2,25.1
			C276.5,123.3,265.3,112.3,265.3,98.2z M301.4,98.2c0-6.8-4.7-11.2-10.9-11.2c-6.2,0-10.9,4.5-10.9,11.2c0,6.7,4.8,11.2,10.9,11.2
			C296.7,109.4,301.4,104.9,301.4,98.2z"/>
		<path class="st5" d="M361.2,76.8v42.8c0,1.5-0.9,2.4-2.4,2.4h-9.5c-1.5,0-2.4-0.9-2.4-2.4v-2c-2.2,3.3-6.3,5.7-12.4,5.7
			c-8.8,0-15.2-6.8-15.2-18.7V76.8c0-1.5,0.9-2.4,2.4-2.4h9.5c1.5,0,2.4,0.9,2.4,2.4v26.5c0,4.8,2.8,6.8,6.4,6.8
			c4.3,0,6.9-2.4,6.9-8V76.8c0-1.5,0.9-2.4,2.4-2.4h9.5C360.3,74.4,361.2,75.3,361.2,76.8z"/>
		<path class="st5" d="M408.5,91.8v27.8c0,1.5-0.9,2.4-2.4,2.4h-9.5c-1.5,0-2.4-0.9-2.4-2.4V93c0-4.8-2.8-6.8-6.4-6.8
			c-4.3,0-6.9,2.4-6.9,8v25.4c0,1.5-0.9,2.4-2.4,2.4H369c-1.5,0-2.4-0.9-2.4-2.4V76.8c0-1.5,0.9-2.4,2.4-2.4h9.5
			c1.5,0,2.4,0.9,2.4,2.4v2c2.2-3.3,6.3-5.7,12.4-5.7C402.1,73.1,408.5,79.9,408.5,91.8z"/>
		<path class="st5" d="M463.3,56.4v63.1c0,1.5-0.9,2.4-2.4,2.4h-9.5c-1.5,0-2.4-0.9-2.4-2.4v-2.1c-3.2,3.6-7.8,5.8-14.2,5.8
			c-12.4,0-22.7-10.9-22.7-25.1c0-14.2,10.3-25.1,22.7-25.1c6.4,0,11,2.1,14.2,5.8V56.4c0-1.5,0.9-2.4,2.4-2.4h9.5
			C462.4,54.1,463.3,54.9,463.3,56.4z M449,98.2c0-7.1-4.8-11.6-11.3-11.6c-6.6,0-11.3,4.5-11.3,11.6c0,7.1,4.8,11.6,11.3,11.6
			C444.3,109.8,449,105.3,449,98.2z"/>
		<path class="st5" d="M467.4,103.5c-0.1-1.6,0.9-2.5,2.4-2.5h10.5c1.4,0,2.2,0.8,2.5,2.3c0.8,3.4,3.6,5.1,9.2,5.1
			c6.2,0,8.2-2.4,8.2-5.1c0-3.9-4.8-5.6-10.5-7.6c-9.4-3.2-21.3-7.1-21.3-21.7c0-13.3,10.8-20,22.1-20c11.1,0,21.8,6,22.9,19.8
			c0.1,1.6-0.9,2.5-2.4,2.5h-10.5c-1.4,0-2.2-0.8-2.5-2.3c-0.8-3.5-3.2-5.1-7.6-5.1c-4.8,0-6.9,2.4-6.9,5.1c0,4,3.9,5.9,9.4,7.9
			c9.5,3.3,22.4,6.8,22.4,21.4c0,13.3-10.6,20-23.4,20C479.5,123.3,468.5,117.3,467.4,103.5z"/>
		<path class="st5" d="M561.1,91.8v27.8c0,1.5-0.9,2.4-2.4,2.4h-9.5c-1.5,0-2.4-0.9-2.4-2.4V93c0-4.8-2.8-6.8-6.4-6.8
			c-4.3,0-6.9,2.4-6.9,8v25.4c0,1.5-0.9,2.4-2.4,2.4h-9.5c-1.5,0-2.4-0.9-2.4-2.4V76.8c0-1.5,0.9-2.4,2.4-2.4h9.5
			c1.5,0,2.4,0.9,2.4,2.4v2c2.2-3.3,6.3-5.7,12.4-5.7C554.8,73.1,561.1,79.9,561.1,91.8z"/>
		<path class="st5" d="M606.7,92v27.6c0,1.5-0.9,2.4-2.4,2.4h-9.1c-1.5,0-2.4-0.9-2.4-2.4v-1.4c-2.5,3-6.3,5.1-12.3,5.1
			c-8.4,0-15.7-4.9-15.7-14.8c0-9.9,7.3-14.8,15.7-14.8c6,0,9.7,1.7,12.3,3.6v-4.3c0-4.7-1.9-6.7-5.9-6.7c-2.9,0-4.8,1.1-5.5,2.8
			c-0.6,1.3-1,2.1-2.5,2.1h-9.3c-1.5,0-2.5-0.9-2.4-2.5c1.2-10.3,10-15.5,19.7-15.5C597.3,73.1,606.7,79.2,606.7,92z M592.8,108.4
			c0-2.9-2.6-4.8-7.2-4.8c-4.4,0-6.5,2-6.5,4.8s2.1,4.8,6.5,4.8C590.2,113.2,592.8,111.2,592.8,108.4z"/>
		<path class="st5" d="M662.2,98.2c0,14.2-10.3,25.1-22.7,25.1c-6.4,0-11-2.1-14.2-5.8v22.4c0,1.5-0.9,2.4-2.4,2.4h-9.5
			c-1.5,0-2.4-0.9-2.4-2.4V76.8c0-1.5,0.9-2.4,2.4-2.4h9.5c1.5,0,2.4,0.9,2.4,2.4v2.1c3.2-3.6,7.8-5.8,14.2-5.8
			C652,73.1,662.2,84,662.2,98.2z M648,98.2c0-7.1-4.8-11.6-11.3-11.6c-6.6,0-11.3,4.5-11.3,11.6c0,7.1,4.8,11.6,11.3,11.6
			C643.2,109.8,648,105.3,648,98.2z"/>
		<path class="st5" d="M698.6,108.6c1.5,0,2.4,0.9,2.4,2.4v8.6c0,1.5-0.9,2.4-2.4,2.4h-33.3c-1.5,0-2.4-0.9-2.4-2.4V114
			c0-1.1,0.3-2,1-2.9l17-23.4h-14.6c-1.5,0-2.4-0.9-2.4-2.4v-8.6c0-1.5,0.9-2.4,2.4-2.4h31.4c1.5,0,2.4,0.9,2.4,2.4v5.5
			c0,1.1-0.3,2-1,2.9l-17,23.4H698.6z"/>
	</g>
</g>
</svg>
